# File produced by Open Asset Import Library (http://www.assimp.sf.net)
# (assimp v3.0.1262)

mtllib master_pylon_highlights.stl.obj.mtl

# 180 vertex positions
v  -16.6117 16.6082 47.604
v  -11.5651 25.3491 47.604
v  -12.6999 26.0044 47.604
v  -16.6117 16.6082 47.604
v  -12.6999 26.0044 47.604
v  -17.7465 17.2634 47.604
v  -11.5651 25.3491 46.512
v  -16.6117 16.6082 46.512
v  -17.7465 17.2634 46.512
v  -11.5651 25.3491 46.512
v  -17.7465 17.2634 46.512
v  -12.6999 26.0044 46.512
v  -17.7465 17.2634 47.604
v  -17.7465 17.2634 46.512
v  -16.6117 16.6082 47.604
v  -17.7465 17.2634 46.512
v  -16.6117 16.6082 46.512
v  -16.6117 16.6082 47.604
v  -12.6999 26.0044 47.604
v  -12.6999 26.0044 46.512
v  -17.7465 17.2634 47.604
v  -12.6999 26.0044 46.512
v  -17.7465 17.2634 46.512
v  -17.7465 17.2634 47.604
v  -11.5651 25.3491 47.604
v  -11.5651 25.3491 46.512
v  -12.6999 26.0044 47.604
v  -11.5651 25.3491 46.512
v  -12.6999 26.0044 46.512
v  -12.6999 26.0044 47.604
v  -16.6117 16.6082 47.604
v  -16.6117 16.6082 46.512
v  -11.5651 25.3491 47.604
v  -16.6117 16.6082 46.512
v  -11.5651 25.3491 46.512
v  -11.5651 25.3491 47.604
v  -17.2533 17.6302 47.583
v  -26.9524 17.9689 47.583
v  -26.9963 16.7096 47.583
v  -17.2533 17.6302 47.583
v  -26.9963 16.7096 47.583
v  -17.2973 16.3709 47.583
v  -26.9524 17.9689 46.533
v  -17.2533 17.6302 46.533
v  -17.2973 16.3709 46.533
v  -26.9524 17.9689 46.533
v  -17.2973 16.3709 46.533
v  -26.9963 16.7096 46.533
v  -17.2973 16.3709 47.583
v  -17.2973 16.3709 46.533
v  -17.2533 17.6302 47.583
v  -17.2973 16.3709 46.533
v  -17.2533 17.6302 46.533
v  -17.2533 17.6302 47.583
v  -26.9963 16.7096 47.583
v  -26.9963 16.7096 46.533
v  -17.2973 16.3709 47.583
v  -26.9963 16.7096 46.533
v  -17.2973 16.3709 46.533
v  -17.2973 16.3709 47.583
v  -26.9524 17.9689 47.583
v  -26.9524 17.9689 46.533
v  -26.9963 16.7096 47.583
v  -26.9524 17.9689 46.533
v  -26.9963 16.7096 46.533
v  -26.9963 16.7096 47.583
v  -17.2533 17.6302 47.583
v  -17.2533 17.6302 46.533
v  -26.9524 17.9689 47.583
v  -17.2533 17.6302 46.533
v  -26.9524 17.9689 46.533
v  -26.9524 17.9689 47.583
v  -17.9204 17.106 47.583
v  -13.1333 8.35181 47.583
v  -11.998 8.93829 47.583
v  -17.9204 17.106 47.583
v  -11.998 8.93829 47.583
v  -16.785 17.6925 47.583
v  -13.1333 8.35181 46.533
v  -17.9204 17.106 46.533
v  -11.998 8.93829 46.533
v  -17.9204 17.106 46.533
v  -16.785 17.6925 46.533
v  -11.998 8.93829 46.533
v  -16.785 17.6925 47.583
v  -16.785 17.6925 46.533
v  -17.9204 17.106 47.583
v  -16.785 17.6925 46.533
v  -17.9204 17.106 46.533
v  -17.9204 17.106 47.583
v  -11.998 8.93829 47.583
v  -11.998 8.93829 46.533
v  -16.785 17.6925 47.583
v  -11.998 8.93829 46.533
v  -16.785 17.6925 46.533
v  -16.785 17.6925 47.583
v  -13.1333 8.35181 47.583
v  -13.1333 8.35181 46.533
v  -11.998 8.93829 47.583
v  -13.1333 8.35181 46.533
v  -11.998 8.93829 46.533
v  -11.998 8.93829 47.583
v  -17.9204 17.106 47.583
v  -17.9204 17.106 46.533
v  -13.1333 8.35181 47.583
v  -17.9204 17.106 46.533
v  -13.1333 8.35181 46.533
v  -13.1333 8.35181 47.583
v  -16.7083 19.2787 83.1788
v  -18.9116 20.6554 83.1788
v  -19.0023 18.0589 83.1788
v  -18.9116 20.6554 72.656
v  -16.7083 19.2787 72.656
v  -19.0023 18.0589 72.656
v  -19.0023 18.0589 83.1788
v  -19.0023 18.0589 72.656
v  -16.7083 19.2787 83.1788
v  -19.0023 18.0589 72.656
v  -16.7083 19.2787 72.656
v  -16.7083 19.2787 83.1788
v  -18.9116 20.6554 83.1788
v  -18.9116 20.6554 72.656
v  -19.0023 18.0589 83.1788
v  -18.9116 20.6554 72.656
v  -19.0023 18.0589 72.656
v  -19.0023 18.0589 83.1788
v  -16.7083 19.2787 83.1788
v  -16.7083 19.2787 72.656
v  -18.9116 20.6554 83.1788
v  -16.7083 19.2787 72.656
v  -18.9116 20.6554 72.656
v  -18.9116 20.6554 83.1788
v  -15.4372 15.7862 83.1788
v  -13.1432 17.0059 83.1788
v  -15.3465 18.3827 83.1788
v  -13.1432 17.0059 72.656
v  -15.4372 15.7862 72.656
v  -15.3465 18.3827 72.656
v  -15.3465 18.3827 83.1788
v  -15.3465 18.3827 72.656
v  -15.4372 15.7862 83.1788
v  -15.3465 18.3827 72.656
v  -15.4372 15.7862 72.656
v  -15.4372 15.7862 83.1788
v  -13.1432 17.0059 83.1788
v  -13.1432 17.0059 72.656
v  -15.3465 18.3827 83.1788
v  -13.1432 17.0059 72.656
v  -15.3465 18.3827 72.656
v  -15.3465 18.3827 83.1788
v  -15.4372 15.7862 83.1788
v  -15.4372 15.7862 72.656
v  -13.1432 17.0059 83.1788
v  -15.4372 15.7862 72.656
v  -13.1432 17.0059 72.656
v  -13.1432 17.0059 83.1788
v  -18.9935 16.5208 83.2546
v  -19.0842 13.9243 83.2546
v  -16.7902 15.144 83.2546
v  -19.0842 13.9243 72.7318
v  -18.9935 16.5208 72.7318
v  -16.7902 15.144 72.7318
v  -16.7902 15.144 83.2546
v  -16.7902 15.144 72.7318
v  -18.9935 16.5208 83.2546
v  -16.7902 15.144 72.7318
v  -18.9935 16.5208 72.7318
v  -18.9935 16.5208 83.2546
v  -19.0842 13.9243 83.2546
v  -19.0842 13.9243 72.7318
v  -16.7902 15.144 83.2546
v  -19.0842 13.9243 72.7318
v  -16.7902 15.144 72.7318
v  -16.7902 15.144 83.2546
v  -18.9935 16.5208 83.2546
v  -18.9935 16.5208 72.7318
v  -19.0842 13.9243 83.2546
v  -18.9935 16.5208 72.7318
v  -19.0842 13.9243 72.7318
v  -19.0842 13.9243 83.2546

# 0 UV coordinates

# 180 vertex normals
vn 0 0 1
vn 0 0 1
vn 0 0 1
vn 0 0 1
vn 0 0 1
vn 0 0 1
vn 0 0 -1
vn 0 0 -1
vn 0 0 -1
vn 0 0 -1
vn 0 0 -1
vn 0 0 -1
vn -0.500006 -0.866022 0
vn -0.500006 -0.866022 0
vn -0.500006 -0.866022 0
vn -0.500006 -0.866022 0
vn -0.500006 -0.866022 0
vn -0.500006 -0.866022 0
vn -0.866026 0.5 0
vn -0.866026 0.5 0
vn -0.866026 0.5 0
vn -0.866026 0.5 0
vn -0.866026 0.5 0
vn -0.866026 0.5 0
vn 0.5 0.866025 0
vn 0.5 0.866025 0
vn 0.5 0.866025 0
vn 0.5 0.866025 0
vn 0.5 0.866025 0
vn 0.5 0.866025 0
vn 0.866026 -0.499999 0
vn 0.866026 -0.499999 0
vn 0.866026 -0.499999 0
vn 0.866026 -0.499999 0
vn 0.866026 -0.499999 0
vn 0.866026 -0.499999 0
vn 0 0 1
vn 0 0 1
vn 0 0 1
vn 0 0 1
vn 0 0 1
vn 0 0 1
vn 0 0 -1
vn 0 0 -1
vn 0 0 -1
vn 0 0 -1
vn 0 0 -1
vn 0 0 -1
vn 0.999391 -0.0348969 0
vn 0.999391 -0.0348969 0
vn 0.999391 -0.0348969 0
vn 0.999391 -0.0348969 0
vn 0.999391 -0.0348969 0
vn 0.999391 -0.0348969 0
vn -0.0348998 -0.999391 0
vn -0.0348998 -0.999391 0
vn -0.0348998 -0.999391 0
vn -0.0348998 -0.999391 0
vn -0.0348998 -0.999391 0
vn -0.0348998 -0.999391 0
vn -0.999391 0.034897 0
vn -0.999391 0.034897 0
vn -0.999391 0.034897 0
vn -0.999391 0.034897 0
vn -0.999391 0.034897 0
vn -0.999391 0.034897 0
vn 0.0348996 0.999391 0
vn 0.0348996 0.999391 0
vn 0.0348996 0.999391 0
vn 0.0348996 0.999391 0
vn 0.0348996 0.999391 0
vn 0.0348996 0.999391 0
vn 0 0 1
vn 0 0 1
vn 0 0 1
vn 0 0 1
vn 0 0 1
vn 0 0 1
vn 0 0 -1
vn 0 0 -1
vn 0 0 -1
vn 0 0 -1
vn 0 0 -1
vn 0 0 -1
vn -0.458956 0.888459 0
vn -0.458956 0.888459 0
vn -0.458956 0.888459 0
vn -0.458956 0.888459 0
vn -0.458956 0.888459 0
vn -0.458956 0.888459 0
vn 0.877388 0.479782 0
vn 0.877388 0.479782 0
vn 0.877388 0.479782 0
vn 0.877388 0.479782 0
vn 0.877388 0.479782 0
vn 0.877388 0.479782 0
vn 0.458953 -0.888461 0
vn 0.458953 -0.888461 0
vn 0.458953 -0.888461 0
vn 0.458953 -0.888461 0
vn 0.458953 -0.888461 0
vn 0.458953 -0.888461 0
vn -0.877388 -0.479782 0
vn -0.877388 -0.479782 0
vn -0.877388 -0.479782 0
vn -0.877388 -0.479782 0
vn -0.877388 -0.479782 0
vn -0.877388 -0.479782 0
vn 0 0 1
vn 0 0 1
vn 0 0 1
vn 0 0 -1
vn 0 0 -1
vn 0 0 -1
vn 0.469474 -0.882946 0
vn 0.469474 -0.882946 0
vn 0.469474 -0.882946 0
vn 0.469474 -0.882946 0
vn 0.469474 -0.882946 0
vn 0.469474 -0.882946 0
vn -0.999391 0.0348987 0
vn -0.999391 0.0348987 0
vn -0.999391 0.0348987 0
vn -0.999391 0.0348987 0
vn -0.999391 0.0348987 0
vn -0.999391 0.0348987 0
vn 0.52992 0.848048 0
vn 0.52992 0.848048 0
vn 0.52992 0.848048 0
vn 0.52992 0.848048 0
vn 0.52992 0.848048 0
vn 0.52992 0.848048 0
vn 0 0 1
vn 0 0 1
vn 0 0 1
vn 0 0 -1
vn 0 0 -1
vn 0 0 -1
vn -0.999391 0.0348987 0
vn -0.999391 0.0348987 0
vn -0.999391 0.0348987 0
vn -0.999391 0.0348987 0
vn -0.999391 0.0348987 0
vn -0.999391 0.0348987 0
vn 0.529918 0.848049 0
vn 0.529918 0.848049 0
vn 0.529918 0.848049 0
vn 0.529918 0.848049 0
vn 0.529918 0.848049 0
vn 0.529918 0.848049 0
vn 0.469473 -0.882947 0
vn 0.469473 -0.882947 0
vn 0.469473 -0.882947 0
vn 0.469473 -0.882947 0
vn 0.469473 -0.882947 0
vn 0.469473 -0.882947 0
vn 0 0 1
vn 0 0 1
vn 0 0 1
vn 0 0 -1
vn 0 0 -1
vn 0 0 -1
vn 0.529919 0.848048 0
vn 0.529919 0.848048 0
vn 0.529919 0.848048 0
vn 0.529919 0.848048 0
vn 0.529919 0.848048 0
vn 0.529919 0.848048 0
vn 0.469471 -0.882948 0
vn 0.469471 -0.882948 0
vn 0.469471 -0.882948 0
vn 0.469471 -0.882948 0
vn 0.469471 -0.882948 0
vn 0.469471 -0.882948 0
vn -0.999391 0.0348988 0
vn -0.999391 0.0348988 0
vn -0.999391 0.0348988 0
vn -0.999391 0.0348988 0
vn -0.999391 0.0348988 0
vn -0.999391 0.0348988 0

# Mesh '<STL_BINARY>' with 60 faces
g <STL_BINARY>
usemtl DefaultMaterial
f  1//1 2//2 3//3
f  4//4 5//5 6//6
f  7//7 8//8 9//9
f  10//10 11//11 12//12
f  13//13 14//14 15//15
f  16//16 17//17 18//18
f  19//19 20//20 21//21
f  22//22 23//23 24//24
f  25//25 26//26 27//27
f  28//28 29//29 30//30
f  31//31 32//32 33//33
f  34//34 35//35 36//36
f  37//37 38//38 39//39
f  40//40 41//41 42//42
f  43//43 44//44 45//45
f  46//46 47//47 48//48
f  49//49 50//50 51//51
f  52//52 53//53 54//54
f  55//55 56//56 57//57
f  58//58 59//59 60//60
f  61//61 62//62 63//63
f  64//64 65//65 66//66
f  67//67 68//68 69//69
f  70//70 71//71 72//72
f  73//73 74//74 75//75
f  76//76 77//77 78//78
f  79//79 80//80 81//81
f  82//82 83//83 84//84
f  85//85 86//86 87//87
f  88//88 89//89 90//90
f  91//91 92//92 93//93
f  94//94 95//95 96//96
f  97//97 98//98 99//99
f  100//100 101//101 102//102
f  103//103 104//104 105//105
f  106//106 107//107 108//108
f  109//109 110//110 111//111
f  112//112 113//113 114//114
f  115//115 116//116 117//117
f  118//118 119//119 120//120
f  121//121 122//122 123//123
f  124//124 125//125 126//126
f  127//127 128//128 129//129
f  130//130 131//131 132//132
f  133//133 134//134 135//135
f  136//136 137//137 138//138
f  139//139 140//140 141//141
f  142//142 143//143 144//144
f  145//145 146//146 147//147
f  148//148 149//149 150//150
f  151//151 152//152 153//153
f  154//154 155//155 156//156
f  157//157 158//158 159//159
f  160//160 161//161 162//162
f  163//163 164//164 165//165
f  166//166 167//167 168//168
f  169//169 170//170 171//171
f  172//172 173//173 174//174
f  175//175 176//176 177//177
f  178//178 179//179 180//180

