# File produced by Open Asset Import Library (http://www.assimp.sf.net)
# (assimp v3.0.1262)

mtllib wave_particle_test_1.stl.obj.mtl

# 156 vertex positions
v  0.00153995 0.00547189 0.00450048
v  -0.704119 1.47361 0.00450048
v  0.00153995 0.00547189 1.0045
v  0.00153995 0.00547189 1.0045
v  -0.704119 1.47361 0.00450048
v  -0.704119 1.47361 1.0045
v  -4.97361 0.0447393 0.00450048
v  0.00153995 0.00547189 0.00450048
v  -4.97361 0.0447393 1.0045
v  -4.97361 0.0447393 1.0045
v  0.00153995 0.00547189 0.00450048
v  0.00153995 0.00547189 1.0045
v  -5.82952 1.42486 0.00450048
v  -4.97361 0.0447393 0.00450048
v  -5.82952 1.42486 1.0045
v  -5.82952 1.42486 1.0045
v  -4.97361 0.0447393 0.00450048
v  -4.97361 0.0447393 1.0045
v  -6.4661 3.16748 0.00450048
v  -5.82952 1.42486 0.00450048
v  -6.4661 3.16748 1.0045
v  -6.4661 3.16748 1.0045
v  -5.82952 1.42486 0.00450048
v  -5.82952 1.42486 1.0045
v  -6.81265 5.04779 0.00450048
v  -6.4661 3.16748 0.00450048
v  -6.81265 5.04779 1.0045
v  -6.81265 5.04779 1.0045
v  -6.4661 3.16748 0.00450048
v  -6.4661 3.16748 1.0045
v  -6.52381 6.94062 0.00450048
v  -6.81265 5.04779 0.00450048
v  -6.52381 6.94062 1.0045
v  -6.52381 6.94062 1.0045
v  -6.81265 5.04779 0.00450048
v  -6.81265 5.04779 1.0045
v  -5.81773 8.67849 0.00450048
v  -6.52381 6.94062 0.00450048
v  -5.81773 8.67849 1.0045
v  -5.81773 8.67849 1.0045
v  -6.52381 6.94062 0.00450048
v  -6.52381 6.94062 1.0045
v  -5.00169 10.0349 0.00450048
v  -5.81773 8.67849 0.00450048
v  -5.00169 10.0349 1.0045
v  -5.00169 10.0349 1.0045
v  -5.81773 8.67849 0.00450048
v  -5.81773 8.67849 1.0045
v  -0.0169397 10.0349 0.00450048
v  -5.00169 10.0349 0.00450048
v  -0.0169397 10.0349 1.0045
v  -0.0169397 10.0349 1.0045
v  -5.00169 10.0349 0.00450048
v  -5.00169 10.0349 1.0045
v  -0.795951 8.60315 0.00450048
v  -0.0169397 10.0349 0.00450048
v  -0.795951 8.60315 1.0045
v  -0.795951 8.60315 1.0045
v  -0.0169397 10.0349 0.00450048
v  -0.0169397 10.0349 1.0045
v  -1.41712 6.94548 0.00450048
v  -0.795951 8.60315 0.00450048
v  -1.41712 6.94548 1.0045
v  -1.41712 6.94548 1.0045
v  -0.795951 8.60315 0.00450048
v  -0.795951 8.60315 1.0045
v  -1.70373 5.06983 0.00450048
v  -1.41712 6.94548 0.00450048
v  -1.70373 5.06983 1.0045
v  -1.70373 5.06983 1.0045
v  -1.41712 6.94548 0.00450048
v  -1.41712 6.94548 1.0045
v  -1.36735 3.23469 0.00450048
v  -1.70373 5.06983 0.00450048
v  -1.36735 3.23469 1.0045
v  -1.36735 3.23469 1.0045
v  -1.70373 5.06983 0.00450048
v  -1.70373 5.06983 1.0045
v  -0.704119 1.47361 0.00450048
v  -1.36735 3.23469 0.00450048
v  -0.704119 1.47361 1.0045
v  -0.704119 1.47361 1.0045
v  -1.36735 3.23469 0.00450048
v  -1.36735 3.23469 1.0045
v  0.00153995 0.00547189 1.0045
v  -0.704119 1.47361 1.0045
v  -4.97361 0.0447393 1.0045
v  -4.97361 0.0447393 1.0045
v  -0.704119 1.47361 1.0045
v  -1.36735 3.23469 1.0045
v  -4.97361 0.0447393 1.0045
v  -1.36735 3.23469 1.0045
v  -5.82952 1.42486 1.0045
v  -5.82952 1.42486 1.0045
v  -1.36735 3.23469 1.0045
v  -1.70373 5.06983 1.0045
v  -5.82952 1.42486 1.0045
v  -1.70373 5.06983 1.0045
v  -6.4661 3.16748 1.0045
v  -6.4661 3.16748 1.0045
v  -1.70373 5.06983 1.0045
v  -6.81265 5.04779 1.0045
v  -6.81265 5.04779 1.0045
v  -1.70373 5.06983 1.0045
v  -6.52381 6.94062 1.0045
v  -6.52381 6.94062 1.0045
v  -1.70373 5.06983 1.0045
v  -5.81773 8.67849 1.0045
v  -5.81773 8.67849 1.0045
v  -1.70373 5.06983 1.0045
v  -1.41712 6.94548 1.0045
v  -5.81773 8.67849 1.0045
v  -1.41712 6.94548 1.0045
v  -5.00169 10.0349 1.0045
v  -5.00169 10.0349 1.0045
v  -1.41712 6.94548 1.0045
v  -0.795951 8.60315 1.0045
v  -5.00169 10.0349 1.0045
v  -0.795951 8.60315 1.0045
v  -0.0169397 10.0349 1.0045
v  -0.704119 1.47361 0.00450048
v  -4.97361 0.0447393 0.00450048
v  -1.36735 3.23469 0.00450048
v  -1.36735 3.23469 0.00450048
v  -4.97361 0.0447393 0.00450048
v  -5.82952 1.42486 0.00450048
v  -1.36735 3.23469 0.00450048
v  -5.82952 1.42486 0.00450048
v  -1.70373 5.06983 0.00450048
v  -1.70373 5.06983 0.00450048
v  -5.82952 1.42486 0.00450048
v  -6.4661 3.16748 0.00450048
v  -1.70373 5.06983 0.00450048
v  -6.4661 3.16748 0.00450048
v  -6.81265 5.04779 0.00450048
v  -0.704119 1.47361 0.00450048
v  0.00153995 0.00547189 0.00450048
v  -4.97361 0.0447393 0.00450048
v  -6.81265 5.04779 0.00450048
v  -6.52381 6.94062 0.00450048
v  -1.70373 5.06983 0.00450048
v  -1.70373 5.06983 0.00450048
v  -6.52381 6.94062 0.00450048
v  -5.81773 8.67849 0.00450048
v  -1.70373 5.06983 0.00450048
v  -5.81773 8.67849 0.00450048
v  -1.41712 6.94548 0.00450048
v  -1.41712 6.94548 0.00450048
v  -5.81773 8.67849 0.00450048
v  -5.00169 10.0349 0.00450048
v  -1.41712 6.94548 0.00450048
v  -5.00169 10.0349 0.00450048
v  -0.795951 8.60315 0.00450048
v  -0.795951 8.60315 0.00450048
v  -5.00169 10.0349 0.00450048
v  -0.0169397 10.0349 0.00450048

# 0 UV coordinates

# 156 vertex normals
vn 0.901295 0.433207 -0
vn 0.901295 0.433207 -0
vn 0.901295 0.433207 -0
vn 0.901295 0.433207 -0
vn 0.901295 0.433207 -0
vn 0.901295 0.433207 0
vn -0.00789246 -0.999969 0
vn -0.00789246 -0.999969 0
vn -0.00789246 -0.999969 0
vn -0.00789246 -0.999969 0
vn -0.00789246 -0.999969 0
vn -0.00789246 -0.999969 4.40169e-18
vn -0.849839 -0.527043 0
vn -0.849839 -0.527043 0
vn -0.849839 -0.527043 0
vn -0.849839 -0.527043 0
vn -0.849839 -0.527043 0
vn -0.849839 -0.527043 0
vn -0.93929 -0.343125 0
vn -0.93929 -0.343125 0
vn -0.93929 -0.343125 0
vn -0.93929 -0.343125 0
vn -0.93929 -0.343125 0
vn -0.93929 -0.343125 0
vn -0.983437 -0.18125 0
vn -0.983437 -0.18125 0
vn -0.983437 -0.18125 0
vn -0.983437 -0.18125 0
vn -0.983437 -0.18125 0
vn -0.983437 -0.181249 -5.98881e-17
vn -0.988557 0.150848 0
vn -0.988557 0.150848 0
vn -0.988557 0.150848 0
vn -0.988557 0.150848 0
vn -0.988557 0.150848 0
vn -0.988557 0.150848 0
vn -0.926454 0.376407 0
vn -0.926454 0.376407 0
vn -0.926454 0.376407 0
vn -0.926454 0.376407 0
vn -0.926454 0.376407 0
vn -0.926454 0.376407 0
vn -0.856873 0.515528 0
vn -0.856873 0.515528 0
vn -0.856873 0.515528 0
vn -0.856873 0.515528 0
vn -0.856873 0.515528 0
vn -0.856873 0.515528 -1.03936e-16
vn 0 1 -0
vn 0 1 -0
vn 0 1 -0
vn 0 1 -0
vn 0 1 -0
vn 0 1 0
vn 0.878391 -0.477943 0
vn 0.878391 -0.477943 0
vn 0.878391 -0.477943 0
vn 0.878391 -0.477943 0
vn 0.878391 -0.477943 0
vn 0.878391 -0.477943 -1.06151e-16
vn 0.936413 -0.350899 0
vn 0.936413 -0.350899 0
vn 0.936413 -0.350899 0
vn 0.936413 -0.350899 0
vn 0.936413 -0.350899 0
vn 0.936413 -0.350899 0
vn 0.988526 -0.15105 0
vn 0.988526 -0.15105 0
vn 0.988526 -0.15105 0
vn 0.988526 -0.15105 0
vn 0.988526 -0.15105 0
vn 0.988526 -0.15105 0
vn 0.983612 0.180296 -0
vn 0.983612 0.180296 -0
vn 0.983612 0.180296 -0
vn 0.983612 0.180296 -0
vn 0.983612 0.180296 -0
vn 0.983612 0.180296 0
vn 0.935835 0.352439 -0
vn 0.935835 0.352439 -0
vn 0.935835 0.352439 -0
vn 0.935835 0.352439 -0
vn 0.935835 0.352439 -0
vn 0.935835 0.352439 1.18296e-16
vn 0 0 1
vn 0 0 1
vn 0 0 1
vn 0 0 1
vn 0 0 1
vn 0 0 1
vn 0 0 1
vn 0 0 1
vn 0 -0 1
vn 0 -0 1
vn 0 0 1
vn 0 0 1
vn 0 -0 1
vn 0 0 1
vn 0 -0 1
vn 0 -0 1
vn 0 0 1
vn 0 -0 1
vn 0 -0 1
vn 0 0 1
vn 0 0 1
vn 0 0 1
vn 0 0 1
vn -0 0 1
vn -0 0 1
vn 0 0 1
vn 0 0 1
vn -0 0 1
vn 0 0 1
vn -0 0 1
vn -0 0 1
vn 0 0 1
vn 0 0 1
vn -0 0 1
vn 0 0 1
vn -0 0 1
vn -0 0 -1
vn -0 0 -1
vn -0 0 -1
vn -0 0 -1
vn -0 0 -1
vn 0 0 -1
vn -0 0 -1
vn 0 0 -1
vn -0 0 -1
vn -0 0 -1
vn 0 0 -1
vn 0 0 -1
vn -0 0 -1
vn 0 0 -1
vn 0 0 -1
vn -0 0 -1
vn 0 -0 -1
vn -0 0 -1
vn 0 0 -1
vn 0 0 -1
vn -0 0 -1
vn -0 0 -1
vn 0 0 -1
vn 0 0 -1
vn -0 0 -1
vn 0 0 -1
vn 0 0 -1
vn 0 0 -1
vn 0 0 -1
vn 0 0 -1
vn 0 0 -1
vn 0 0 -1
vn 0 0 -1
vn 0 0 -1
vn 0 0 -1
vn 0 0 -1

# Mesh '<STL_BINARY>' with 52 faces
g <STL_BINARY>
usemtl DefaultMaterial
f  1//1 2//2 3//3
f  4//4 5//5 6//6
f  7//7 8//8 9//9
f  10//10 11//11 12//12
f  13//13 14//14 15//15
f  16//16 17//17 18//18
f  19//19 20//20 21//21
f  22//22 23//23 24//24
f  25//25 26//26 27//27
f  28//28 29//29 30//30
f  31//31 32//32 33//33
f  34//34 35//35 36//36
f  37//37 38//38 39//39
f  40//40 41//41 42//42
f  43//43 44//44 45//45
f  46//46 47//47 48//48
f  49//49 50//50 51//51
f  52//52 53//53 54//54
f  55//55 56//56 57//57
f  58//58 59//59 60//60
f  61//61 62//62 63//63
f  64//64 65//65 66//66
f  67//67 68//68 69//69
f  70//70 71//71 72//72
f  73//73 74//74 75//75
f  76//76 77//77 78//78
f  79//79 80//80 81//81
f  82//82 83//83 84//84
f  85//85 86//86 87//87
f  88//88 89//89 90//90
f  91//91 92//92 93//93
f  94//94 95//95 96//96
f  97//97 98//98 99//99
f  100//100 101//101 102//102
f  103//103 104//104 105//105
f  106//106 107//107 108//108
f  109//109 110//110 111//111
f  112//112 113//113 114//114
f  115//115 116//116 117//117
f  118//118 119//119 120//120
f  121//121 122//122 123//123
f  124//124 125//125 126//126
f  127//127 128//128 129//129
f  130//130 131//131 132//132
f  133//133 134//134 135//135
f  136//136 137//137 138//138
f  139//139 140//140 141//141
f  142//142 143//143 144//144
f  145//145 146//146 147//147
f  148//148 149//149 150//150
f  151//151 152//152 153//153
f  154//154 155//155 156//156

